<svg width="30" height="30" viewBox="0 0 30 30" fill="none" xmlns="http://www.w3.org/2000/svg">
<path fill-rule="evenodd" clip-rule="evenodd" d="M15 30C23.2843 30 30 23.2843 30 15C30 6.71573 23.2843 0 15 0C6.71573 0 0 6.71573 0 15C0 23.2843 6.71573 30 15 30Z" fill="#28435A"/>
<path d="M11.3994 12.64C11.474 12.1173 11.618 11.656 11.8314 11.256C12.0447 10.8507 12.314 10.512 12.6394 10.24C12.97 9.968 13.346 9.76267 13.7674 9.624C14.194 9.48 14.6527 9.408 15.1434 9.408C15.6287 9.408 16.0767 9.47733 16.4874 9.616C16.898 9.75467 17.25 9.952 17.5434 10.208C17.842 10.464 18.074 10.7733 18.2394 11.136C18.4047 11.4987 18.4874 11.9013 18.4874 12.344C18.4874 12.7067 18.4394 13.032 18.3434 13.32C18.2527 13.6027 18.1194 13.8507 17.9434 14.064C17.7727 14.2773 17.5647 14.4587 17.3194 14.608C17.074 14.7573 16.7994 14.88 16.4954 14.976C17.242 15.168 17.802 15.4987 18.1754 15.968C18.554 16.432 18.7434 17.0133 18.7434 17.712C18.7434 18.24 18.642 18.7147 18.4394 19.136C18.242 19.5573 17.97 19.9173 17.6234 20.216C17.2767 20.5093 16.8714 20.736 16.4074 20.896C15.9487 21.0507 15.4554 21.128 14.9274 21.128C14.3194 21.128 13.7994 21.0533 13.3674 20.904C12.9354 20.7493 12.57 20.5387 12.2714 20.272C11.9727 20.0053 11.7274 19.6907 11.5354 19.328C11.3434 18.96 11.1807 18.5627 11.0474 18.136L11.6634 17.88C11.8234 17.8107 11.978 17.792 12.1274 17.824C12.282 17.856 12.394 17.944 12.4634 18.088C12.5327 18.2373 12.618 18.416 12.7194 18.624C12.826 18.832 12.97 19.032 13.1514 19.224C13.3327 19.416 13.562 19.5787 13.8394 19.712C14.122 19.8453 14.4794 19.912 14.9114 19.912C15.3114 19.912 15.6607 19.848 15.9594 19.72C16.2634 19.5867 16.514 19.416 16.7114 19.208C16.914 19 17.066 18.768 17.1674 18.512C17.2687 18.256 17.3194 18.0027 17.3194 17.752C17.3194 17.4427 17.2794 17.16 17.1994 16.904C17.1194 16.648 16.97 16.4267 16.7514 16.24C16.5327 16.0533 16.2314 15.9067 15.8474 15.8C15.4687 15.6933 14.9807 15.64 14.3834 15.64V14.608C14.874 14.6027 15.29 14.5493 15.6314 14.448C15.978 14.3467 16.258 14.208 16.4714 14.032C16.69 13.856 16.8474 13.6453 16.9434 13.4C17.0447 13.1547 17.0954 12.8827 17.0954 12.584C17.0954 12.2533 17.042 11.9653 16.9354 11.72C16.834 11.4747 16.6927 11.272 16.5114 11.112C16.33 10.952 16.114 10.832 15.8634 10.752C15.618 10.672 15.3514 10.632 15.0634 10.632C14.7754 10.632 14.506 10.6747 14.2554 10.76C14.01 10.8453 13.7914 10.9653 13.5994 11.12C13.4127 11.2693 13.2554 11.448 13.1274 11.656C12.9994 11.864 12.9087 12.0933 12.8554 12.344C12.786 12.5307 12.698 12.656 12.5914 12.72C12.49 12.7787 12.3407 12.7947 12.1434 12.768L11.3994 12.64Z" fill="white" fill-opacity="0.7"/>
</svg>
