<svg width="30" height="30" viewBox="0 0 30 30" fill="none" xmlns="http://www.w3.org/2000/svg">
<path fill-rule="evenodd" clip-rule="evenodd" d="M15 30C23.2843 30 30 23.2843 30 15C30 6.71573 23.2843 0 15 0C6.71573 0 0 6.71573 0 15C0 23.2843 6.71573 30 15 30Z" fill="#28435A"/>
<path d="M18.2554 19.648C18.41 19.648 18.5327 19.6933 18.6234 19.784C18.714 19.8747 18.7594 19.992 18.7594 20.136V21H11.1114V20.512C11.1114 20.4107 11.1327 20.3067 11.1754 20.2C11.218 20.0933 11.2847 19.9947 11.3754 19.904L15.0474 16.216C15.3514 15.9067 15.6287 15.6107 15.8794 15.328C16.13 15.04 16.3434 14.752 16.5194 14.464C16.6954 14.176 16.8314 13.8853 16.9274 13.592C17.0234 13.2933 17.0714 12.976 17.0714 12.64C17.0714 12.304 17.018 12.0107 16.9114 11.76C16.8047 11.504 16.658 11.2933 16.4714 11.128C16.29 10.9627 16.074 10.84 15.8234 10.76C15.5727 10.6747 15.3034 10.632 15.0154 10.632C14.722 10.632 14.4527 10.6747 14.2074 10.76C13.962 10.8453 13.7434 10.9653 13.5514 11.12C13.3647 11.2693 13.2074 11.448 13.0794 11.656C12.9514 11.864 12.8607 12.0933 12.8074 12.344C12.7434 12.5307 12.6554 12.656 12.5434 12.72C12.4367 12.7787 12.2847 12.7947 12.0874 12.768L11.3434 12.64C11.418 12.1173 11.562 11.656 11.7754 11.256C11.994 10.8507 12.266 10.512 12.5914 10.24C12.922 9.968 13.298 9.76267 13.7194 9.624C14.1407 9.48 14.5967 9.408 15.0874 9.408C15.5727 9.408 16.026 9.48 16.4474 9.624C16.8687 9.768 17.234 9.97867 17.5434 10.256C17.8527 10.528 18.0954 10.8613 18.2714 11.256C18.4474 11.6507 18.5354 12.0987 18.5354 12.6C18.5354 13.0267 18.4714 13.424 18.3434 13.792C18.2154 14.1547 18.042 14.5013 17.8234 14.832C17.6047 15.1627 17.3514 15.4853 17.0634 15.8C16.7807 16.1147 16.4794 16.432 16.1594 16.752L13.1354 19.84C13.3487 19.7813 13.5647 19.736 13.7834 19.704C14.002 19.6667 14.2127 19.648 14.4154 19.648H18.2554Z" fill="white" fill-opacity="0.7"/>
</svg>
