<svg width="30" height="30" viewBox="0 0 30 30" fill="none" xmlns="http://www.w3.org/2000/svg">
<path fill-rule="evenodd" clip-rule="evenodd" d="M15 30C23.2843 30 30 23.2843 30 15C30 6.71573 23.2843 0 15 0C6.71573 0 0 6.71573 0 15C0 23.2843 6.71573 30 15 30Z" fill="#ED5901"/>
<path d="M18.5034 19.912V21H12.3594V19.912H14.8154V12.096C14.8154 11.8613 14.8234 11.624 14.8394 11.384L12.7994 13.136C12.73 13.1947 12.6607 13.232 12.5914 13.248C12.522 13.2587 12.458 13.2587 12.3994 13.248C12.3407 13.2373 12.2847 13.216 12.2314 13.184C12.1834 13.152 12.146 13.1173 12.1194 13.08L11.6714 12.464L15.0874 9.512H16.2474V19.912H18.5034Z" fill="white"/>
</svg>
